<svg width="24" height="24" viewBox="0 0 24 24" fill="none" xmlns="http://www.w3.org/2000/svg">
<g opacity="0.5">
<path d="M6.87264 17.129C5.02764 15.819 3.56764 14.115 2.74264 13.039C2.51195 12.742 2.38672 12.3766 2.38672 12.0005C2.38672 11.6244 2.51195 11.259 2.74264 10.962C4.23564 9.013 7.81765 5 11.9996 5C13.8756 5 15.6296 5.807 17.1296 6.874" stroke="#384255" stroke-width="2" stroke-linecap="round" stroke-linejoin="round"/>
<path d="M14.131 9.887C13.8533 9.60467 13.5224 9.38011 13.1575 9.22628C12.7925 9.07246 12.4008 8.99241 12.0048 8.99075C11.6087 8.98909 11.2163 9.06586 10.8501 9.21662C10.4839 9.36738 10.1512 9.58916 9.87112 9.86915C9.59105 10.1491 9.3692 10.4818 9.21835 10.848C9.0675 11.2142 8.99065 11.6066 8.99221 12.0026C8.99378 12.3986 9.07374 12.7904 9.22747 13.1554C9.38121 13.5203 9.60569 13.8512 9.88796 14.129" stroke="#384255" stroke-width="2" stroke-linecap="round" stroke-linejoin="round"/>
<path d="M4 20L20 4" stroke="#384255" stroke-width="2" stroke-linecap="round" stroke-linejoin="round"/>
<path d="M10 18.704C10.6492 18.8972 11.3227 18.9969 12 19C16.182 19 19.764 14.987 21.257 13.038C21.4876 12.7407 21.6127 12.3751 21.6125 11.9988C21.6124 11.6226 21.4869 11.2571 21.256 10.96C20.7313 10.2755 20.1684 9.62112 19.57 9" stroke="#384255" stroke-width="2" stroke-linecap="round" stroke-linejoin="round"/>
</g>
</svg>
