<svg width="24" height="24" viewBox="0 0 24 24" fill="none" xmlns="http://www.w3.org/2000/svg">
<g opacity="0.5">
<path d="M6.87264 17.129C5.02764 15.819 3.56764 14.115 2.74264 13.039C2.51195 12.742 2.38672 12.3766 2.38672 12.0005C2.38672 11.6244 2.51195 11.259 2.74264 10.962C4.23564 9.013 7.81765 5 11.9996 5C13.8756 5 15.6296 5.807 17.1296 6.874" stroke="#384255" stroke-width="2" stroke-linecap="round" stroke-linejoin="round"/>
<path d="M17.2563 6.99991C19.1013 8.30991 20.5613 10.0139 21.3863 11.0899C21.617 11.3869 21.7422 11.7523 21.7422 12.1284C21.7422 12.5045 21.617 12.8699 21.3863 13.1669C19.8933 15.1159 16.3113 19.1289 12.1293 19.1289C10.2533 19.1289 8.49926 18.3219 6.99926 17.2549" stroke="#384255" stroke-width="2" stroke-linecap="round" stroke-linejoin="round"/>
<path d="M14.131 9.887C13.8533 9.60467 13.5224 9.38011 13.1575 9.22628C12.7925 9.07246 12.4008 8.99241 12.0048 8.99075C11.6087 8.98909 11.2163 9.06586 10.8501 9.21662C10.4839 9.36738 10.1512 9.58916 9.87112 9.86915C9.59105 10.1491 9.3692 10.4818 9.21835 10.848C9.0675 11.2142 8.99065 11.6066 8.99221 12.0026C8.99378 12.3986 9.07374 12.7904 9.22747 13.1554C9.38121 13.5203 9.60569 13.8512 9.88796 14.129" stroke="#384255" stroke-width="2" stroke-linecap="round" stroke-linejoin="round"/>
<path d="M9.99013 14.2326C10.2678 14.515 10.5987 14.7395 10.9636 14.8933C11.3285 15.0472 11.7203 15.1272 12.1163 15.1289C12.5124 15.1305 12.9048 15.0538 13.271 14.903C13.6372 14.7522 13.9699 14.5305 14.25 14.2505C14.53 13.9705 14.7519 13.6378 14.9027 13.2716C15.0536 12.9055 15.1304 12.5131 15.1289 12.117C15.1273 11.721 15.0474 11.3292 14.8936 10.9643C14.7399 10.5993 14.5154 10.2684 14.2331 9.99063" stroke="#384255" stroke-width="2" stroke-linecap="round" stroke-linejoin="round"/>
</g>
</svg>
