<svg width="22" height="21" viewBox="0 0 22 21" fill="none" xmlns="http://www.w3.org/2000/svg">
<g clip-path="url(#clip0_785_2149)">
<path d="M12.4471 18.105C10.5494 18.1046 8.70642 17.4694 7.21158 16.3004L2.51173 21L1 19.4883L5.69984 14.7888C4.53023 13.2938 3.89456 11.4505 3.8941 9.55249C3.8941 4.83686 7.73117 1 12.4471 1C17.1629 1 21 4.83686 21 9.55249C21 14.2681 17.1629 18.105 12.4471 18.105ZM12.4471 3.13812C8.90934 3.13812 6.03234 6.01497 6.03234 9.55249C6.03234 13.09 8.90934 15.9669 12.4471 15.9669C15.9848 15.9669 18.8618 13.09 18.8618 9.55249C18.8618 6.01497 15.9848 3.13812 12.4471 3.13812Z" fill="#858FA4" fill-opacity="0.7"/>
</g>
<defs>
<clipPath id="clip0_785_2149">
<rect width="21.4276" height="20" fill="white" transform="translate(0 0.5)"/>
</clipPath>
</defs>
</svg>
