<svg width="20" height="21" viewBox="0 0 20 21" fill="none" xmlns="http://www.w3.org/2000/svg">
<g clip-path="url(#clip0_972_10554)">
<path d="M10 0.500977C4.47773 0.500977 0 4.97783 0 10.5005C0 16.0232 4.47729 20.5001 10 20.5001C15.5231 20.5001 20 16.0232 20 10.5005C20 4.97783 15.5231 0.500977 10 0.500977ZM10 3.49096C11.8273 3.49096 13.308 4.97212 13.308 6.79853C13.308 8.62537 11.8273 10.1061 10 10.1061C8.17359 10.1061 6.69288 8.62537 6.69288 6.79853C6.69288 4.97212 8.17359 3.49096 10 3.49096ZM9.9978 17.8857C8.17535 17.8857 6.50619 17.222 5.21875 16.1234C4.90512 15.8559 4.72415 15.4636 4.72415 15.0521C4.72415 13.1997 6.22332 11.7173 8.07608 11.7173H11.9248C13.778 11.7173 15.2715 13.1997 15.2715 15.0521C15.2715 15.4641 15.0914 15.8555 14.7773 16.123C13.4903 17.222 11.8207 17.8857 9.9978 17.8857Z" fill="#858FA4" fill-opacity="0.7"/>
</g>
<defs>
<clipPath id="clip0_972_10554">
<rect width="20" height="20" fill="white" transform="translate(0 0.5)"/>
</clipPath>
</defs>
</svg>
